<?xml version="1.0" encoding="UTF-8" standalone="no"?>
<!-- Created with Inkscape (http://www.inkscape.org/) -->

<svg
   xmlns:dc="http://purl.org/dc/elements/1.1/"
   xmlns:cc="http://creativecommons.org/ns#"
   xmlns:rdf="http://www.w3.org/1999/02/22-rdf-syntax-ns#"
   xmlns:svg="http://www.w3.org/2000/svg"
   xmlns="http://www.w3.org/2000/svg"
   xmlns:sodipodi="http://sodipodi.sourceforge.net/DTD/sodipodi-0.dtd"
   xmlns:inkscape="http://www.inkscape.org/namespaces/inkscape"
   width="64"
   height="64"
   viewBox="0 0 16.933333 16.933334"
   version="1.1"
   id="svg8"
   inkscape:version="0.92.4 (5da689c313, 2019-01-14)"
   sodipodi:docname="level outline 3.svg">
  <defs
     id="defs2" />
  <sodipodi:namedview
     id="base"
     pagecolor="#ffffff"
     bordercolor="#666666"
     borderopacity="1.0"
     inkscape:pageopacity="0.0"
     inkscape:pageshadow="2"
     inkscape:zoom="5.6568543"
     inkscape:cx="-2.709986"
     inkscape:cy="8.3402425"
     inkscape:document-units="mm"
     inkscape:current-layer="layer1"
     showgrid="true"
     units="px"
     inkscape:window-width="1920"
     inkscape:window-height="1046"
     inkscape:window-x="-11"
     inkscape:window-y="-11"
     inkscape:window-maximized="1">
    <inkscape:grid
       type="xygrid"
       id="grid3713"
       empspacing="8" />
  </sodipodi:namedview>
  <metadata
     id="metadata5">
    <rdf:RDF>
      <cc:Work
         rdf:about="">
        <dc:format>image/svg+xml</dc:format>
        <dc:type
           rdf:resource="http://purl.org/dc/dcmitype/StillImage" />
        <dc:title></dc:title>
      </cc:Work>
    </rdf:RDF>
  </metadata>
  <g
     inkscape:label="Ebene 1"
     inkscape:groupmode="layer"
     id="layer1"
     transform="translate(0,-280.06665)">
    <path
       style="fill:none;stroke:#000000;stroke-width:0.84666669;stroke-linecap:round;stroke-miterlimit:4;stroke-dasharray:none"
       d="m 6.0366242,282.66669 c 0.8100151,-0.33551 1.6496871,-0.49099 2.4745277,-0.48485 0.8248357,0.006 1.6348541,0.1739 2.3855551,0.48485 m 3.436591,3.4366 c 0.335522,0.81001 0.490996,1.64968 0.484856,2.47452 -0.0061,0.82485 -0.173902,1.63486 -0.484852,2.38556 m -3.436593,3.4366 c -0.810015,0.33551 -1.6496876,0.49099 -2.4745284,0.48485 -0.8248358,-0.006 -1.6348542,-0.1739 -2.3855548,-0.48485 m -3.4365979,-3.4366 c -0.3355154,-0.81001 -0.4909896,-1.64968 -0.4848491,-2.47452 0.00614,-0.82485 0.1739009,-1.63485 0.4848519,-2.38556"
       id="path3715"
       inkscape:connector-curvature="0"
       sodipodi:nodetypes="csccsccsccsc" />
    <path
       style="fill:none;stroke:#000000;stroke-width:0.84666667;stroke-linecap:round;stroke-miterlimit:4;stroke-dasharray:none"
       d="m 11.504218,281.20003 c 1.012512,0.4194 1.89211,1.02415 2.615751,1.75864 0.723402,0.73471 1.291309,1.59873 1.679996,2.53711 m -7e-6,6.0751 c -0.419391,1.01251 -1.024142,1.8921 -1.758633,2.61574 -0.734444,0.72369 -1.598728,1.29132 -2.537108,1.68 m -6.0751027,10e-6 c -1.0125105,-0.4194 -1.8921094,-1.02415 -2.6157504,-1.75864 -0.7234022,-0.73471 -1.2913087,-1.59873 -1.6799964,-2.53711 m 2e-6,-6.0751 c 0.4193962,-1.01251 1.0241473,-1.89211 1.7586385,-2.61574 0.7344972,-0.72364 1.5987206,-1.29131 2.5371083,-1.68"
       id="path3715-8"
       inkscape:connector-curvature="0"
       sodipodi:nodetypes="csccsccsccsc" />
  </g>
</svg>
