<?xml version="1.0" encoding="UTF-8" standalone="no"?>
<!-- Created with Inkscape (http://www.inkscape.org/) -->

<svg
   xmlns:dc="http://purl.org/dc/elements/1.1/"
   xmlns:cc="http://creativecommons.org/ns#"
   xmlns:rdf="http://www.w3.org/1999/02/22-rdf-syntax-ns#"
   xmlns:svg="http://www.w3.org/2000/svg"
   xmlns="http://www.w3.org/2000/svg"
   xmlns:sodipodi="http://sodipodi.sourceforge.net/DTD/sodipodi-0.dtd"
   xmlns:inkscape="http://www.inkscape.org/namespaces/inkscape"
   width="64"
   height="64"
   viewBox="0 0 16.933333 16.933334"
   version="1.1"
   id="svg8"
   inkscape:version="0.92.4 (5da689c313, 2019-01-14)"
   sodipodi:docname="level outline 0.svg">
  <defs
     id="defs2" />
  <sodipodi:namedview
     id="base"
     pagecolor="#ffffff"
     bordercolor="#666666"
     borderopacity="1.0"
     inkscape:pageopacity="0.0"
     inkscape:pageshadow="2"
     inkscape:zoom="8"
     inkscape:cx="6.9209976"
     inkscape:cy="15.164221"
     inkscape:document-units="mm"
     inkscape:current-layer="layer1"
     showgrid="true"
     units="px"
     inkscape:window-width="1920"
     inkscape:window-height="1046"
     inkscape:window-x="-11"
     inkscape:window-y="-11"
     inkscape:window-maximized="1">
    <inkscape:grid
       type="xygrid"
       id="grid3713"
       empspacing="8" />
  </sodipodi:namedview>
  <metadata
     id="metadata5">
    <rdf:RDF>
      <cc:Work
         rdf:about="">
        <dc:format>image/svg+xml</dc:format>
        <dc:type
           rdf:resource="http://purl.org/dc/dcmitype/StillImage" />
        <dc:title></dc:title>
      </cc:Work>
    </rdf:RDF>
  </metadata>
  <g
     inkscape:label="Ebene 1"
     inkscape:groupmode="layer"
     id="layer1"
     transform="translate(0,-280.06665)">
    <path
       style="fill:none;stroke:#000000;stroke-width:0.84666669;stroke-linecap:round;stroke-miterlimit:4;stroke-dasharray:none"
       d="m 6.0366242,282.66669 c 0.8100151,-0.33551 1.6496871,-0.49099 2.4745277,-0.48485 0.8248357,0.006 1.6348541,0.1739 2.3855551,0.48485 m 3.436591,3.4366 c 0.335522,0.81001 0.490996,1.64968 0.484856,2.47452 -0.0061,0.82485 -0.173902,1.63486 -0.484852,2.38556 m -3.436593,3.4366 c -0.810015,0.33551 -1.6496876,0.49099 -2.4745284,0.48485 -0.8248358,-0.006 -1.6348542,-0.1739 -2.3855548,-0.48485 m -3.4365979,-3.4366 c -0.3355154,-0.81001 -0.4909896,-1.64968 -0.4848491,-2.47452 0.00614,-0.82485 0.1739009,-1.63485 0.4848519,-2.38556"
       id="path3715"
       inkscape:connector-curvature="0"
       sodipodi:nodetypes="csccsccsccsc" />
    <path
       style="fill:none;stroke:#000000;stroke-width:0.84666669;stroke-linecap:round;stroke-miterlimit:4;stroke-dasharray:none"
       d="m 10.896708,282.66669 c 0.810009,0.33553 1.513687,0.81932 2.092596,1.40691 0.579004,0.58749 1.033051,1.27899 1.344002,2.02969 m -7e-6,4.86008 c -0.335514,0.81001 -0.819313,1.51368 -1.406905,2.09259 -0.58757,0.57895 -1.278988,1.03306 -2.029688,1.34401 m -4.8600809,0 c -0.8100085,-0.33553 -1.5136876,-0.81932 -2.0925966,-1.40691 -0.5790044,-0.58749 -1.0330504,-1.27899 -1.3440011,-2.02969 m 1.4e-6,-4.86008 c 0.3355183,-0.81001 0.8193178,-1.51368 1.4069098,-2.09259 0.5875986,-0.57892 1.27898,-1.03305 2.0296877,-1.34401"
       id="path3715-4"
       inkscape:connector-curvature="0"
       sodipodi:nodetypes="csccsccsccsc" />
  </g>
</svg>
